<svg version="1.1" id="Outline__x28_Expanded_x2B_Unite_x29_" xmlns="http://www.w3.org/2000/svg" xmlns:xlink="http://www.w3.org/1999/xlink" x="0px" y="0px" viewBox="0 0 64 64" enable-background="new 0 0 64 64" xml:space="preserve">
<g id="gas_1_">
	<path d="M38,20c0-9.925-8.075-18-18-18S2,10.075,2,20s8.075,18,18,18S38,29.925,38,20z M20,36c-8.822,0-16-7.178-16-16
		S11.178,4,20,4s16,7.178,16,16S28.822,36,20,36z" id="id_101" style="fill: rgb(142, 184, 151);"></path>
	<path d="M47,32c-8.271,0-15,6.729-15,15s6.729,15,15,15s15-6.729,15-15S55.271,32,47,32z M47,60c-7.168,0-13-5.832-13-13
		s5.832-13,13-13s13,5.832,13,13S54.168,60,47,60z" id="id_102" style="fill: rgb(142, 184, 151);"></path>
	<path d="M43.66,41.753c0.578,0,1.062,0.123,1.402,0.289l0.217-0.732C45.042,41.185,44.496,41,43.629,41
		C41.474,41,40,42.474,40,44.65c0,2.278,1.474,3.516,3.434,3.516c0.845,0,1.505-0.165,1.835-0.33l-0.186-0.711
		c-0.361,0.175-0.918,0.289-1.464,0.289c-1.691,0-2.67-1.093-2.67-2.794C40.949,42.794,42.032,41.753,43.66,41.753z" id="id_103" style="fill: rgb(142, 184, 151);"></path>
	<path d="M48.994,41c-1.855,0-3.227,1.443-3.227,3.65c0,2.103,1.289,3.526,3.124,3.526c1.774,0,3.227-1.268,3.227-3.66
		C52.117,42.454,50.891,41,48.994,41z M48.942,47.444c-1.413,0-2.217-1.33-2.217-2.814c0-1.526,0.743-2.897,2.227-2.897
		c1.495,0,2.216,1.443,2.216,2.825C51.169,46.134,50.365,47.444,48.942,47.444z" id="id_104" style="fill: rgb(142, 184, 151);"></path>
	<path d="M53.649,51.497l0.349-0.322c0.918-0.885,1.501-1.535,1.501-2.339c0-0.623-0.395-1.267-1.334-1.267
		c-0.503,0-0.932,0.188-1.233,0.442l0.188,0.416c0.201-0.168,0.529-0.369,0.924-0.369c0.651,0,0.865,0.409,0.865,0.851
		c-0.007,0.657-0.509,1.22-1.622,2.279l-0.463,0.449V52h2.782v-0.489h-1.958V51.497z" id="id_105" style="fill: rgb(142, 184, 151);"></path>
	<path d="M16.981,9c-3.977,0-6.917,3.093-6.917,7.823c0,4.508,2.762,7.558,6.696,7.558c3.802,0,6.917-2.718,6.917-7.846
		C23.677,12.116,21.048,9,16.981,9z M16.871,22.812c-3.028,0-4.752-2.85-4.752-6.033c0-3.271,1.592-6.21,4.774-6.21
		c3.205,0,4.752,3.093,4.752,6.055C21.645,20.005,19.921,22.812,16.871,22.812z" id="id_106" style="fill: rgb(142, 184, 151);"></path>
	<path d="M26.111,28.947l0.617-0.568c1.62-1.563,2.651-2.711,2.651-4.131c0-1.101-0.698-2.237-2.356-2.237
		c-0.888,0-1.646,0.331-2.178,0.781l0.332,0.734c0.354-0.296,0.934-0.652,1.632-0.652c1.149,0,1.527,0.722,1.527,1.503
		c-0.012,1.16-0.898,2.155-2.864,4.025l-0.817,0.793v0.639h4.913v-0.864h-3.457V28.947z" id="id_107" style="fill: rgb(142, 184, 151);"></path>
</g>
</svg>