<svg width="64" height="64" viewBox="0 0 64 64" fill="none" xmlns="http://www.w3.org/2000/svg">
<path d="M57 55.91C58.3965 55.6726 59.6641 54.9492 60.579 53.8678C61.4939 52.7864 61.9972 51.4165 62 50C62 46.95 59.73 40 56 40C55.2073 40.0207 54.4468 40.3179 53.85 40.84C53.36 37.22 51.75 33.06 49.52 30.77C49.8361 29.1996 49.9968 27.6019 50 26C50 21.2533 48.5924 16.6131 45.9553 12.6663C43.3181 8.71954 39.5698 5.64341 35.1844 3.8269C30.799 2.0104 25.9734 1.53512 21.3178 2.46116C16.6623 3.38721 12.3859 5.67299 9.02945 9.02945C5.67299 12.3859 3.38721 16.6623 2.46116 21.3178C1.53512 25.9734 2.0104 30.799 3.8269 35.1844C5.64341 39.5698 8.71954 43.3181 12.6663 45.9553C16.6131 48.5924 21.2533 50 26 50C27.4185 49.9998 28.8342 49.8727 30.23 49.62C30.5376 50.7132 31.1491 51.6967 31.9935 52.4561C32.8379 53.2155 33.8804 53.7197 35 53.91V60H30V62H62V60H57V55.91ZM48 26C48.0008 27.1454 47.9105 28.289 47.73 29.42C47.1934 29.1485 46.6013 29.0048 46 29C45.2025 29.0651 44.4293 29.3059 43.736 29.7053C43.0426 30.1047 42.4464 30.6528 41.99 31.31L40 28.67V25.44C39.9968 24.9077 39.785 24.3978 39.41 24.02L38.15 22.77C37.8909 22.504 37.5628 22.3153 37.2024 22.2253C36.8421 22.1352 36.4639 22.1472 36.11 22.26L33.96 22.96L30.82 22.2L30.07 19.19L31.54 17H34.7L37.27 18.71C37.4896 18.8554 37.7335 18.9604 37.99 19.02L42.47 19.92C42.9374 19.9928 43.4158 19.9084 43.83 19.68L46.54 18.13C47.5057 20.6415 48.0006 23.3093 48 26V26ZM38.41 7.85001C39.9183 8.88223 41.2922 10.0983 42.5 11.47L41.93 11.85L38.79 10.28C38.3617 10.0589 37.8674 10.002 37.4 10.12L34.18 10.92L32.38 9.73001L33.54 8.00001H37.7C37.9441 7.99557 38.185 7.94466 38.41 7.85001V7.85001ZM20.18 4.79001L20.88 6.04001C21.023 6.31017 21.2265 6.54366 21.4745 6.72231C21.7225 6.90097 22.0085 7.01995 22.31 7.07001L26.31 7.73001L25.38 9.12001L22.08 9.95001C21.6434 10.0604 21.2583 10.3183 20.99 10.68L18.34 14.21L14.67 16.05L10.61 16.86C10.1564 16.9502 9.7481 17.1948 9.45456 17.5521C9.16101 17.9095 9.00038 18.3575 9.00001 18.82V20.46C9.00007 20.7911 9.08232 21.117 9.23941 21.4085C9.39649 21.7 9.62348 21.9479 9.90001 22.13L12 23.54V25.39L7.65001 23.21L4.92001 19.71C5.99701 16.137 7.96127 12.8948 10.6296 10.2859C13.298 7.67696 16.5836 5.78624 20.18 4.79001V4.79001ZM21 45.6L19.79 45.2L18 39.85V36.62C18.0019 36.2475 17.8988 35.882 17.7025 35.5654C17.5061 35.2488 17.2246 34.9939 16.89 34.83L15.59 34.18L14 32.59V29.58L17.85 27.23L20 29.41C20.3777 29.7852 20.8876 29.9971 21.42 30H24.46L25.84 32.1C26.0226 32.3761 26.2706 32.6028 26.562 32.7598C26.8533 32.9168 27.179 32.9993 27.51 33H28.68L28.12 35.25L26.38 35.83C25.9834 35.9602 25.6377 36.2118 25.3919 36.5491C25.1461 36.8865 25.0125 37.2926 25.01 37.71L25 39.38L22.1 40.83C21.768 40.9962 21.4891 41.2518 21.2947 41.5681C21.1003 41.8844 20.9982 42.2488 21 42.62V45.6ZM30.02 47.62C28.6949 47.8726 27.349 47.9999 26 48C24.4778 48.0018 22.9595 47.8442 21.47 47.53C21.7225 47.477 21.9611 47.3714 22.17 47.22C22.4267 47.0349 22.6357 46.7915 22.78 46.5099C22.9243 46.2283 22.9997 45.9164 23 45.6V42.62L25.9 41.17C26.2303 41.0044 26.508 40.7502 26.7023 40.4359C26.8965 40.1216 26.9996 39.7595 27 39.39L27.01 37.72L28.75 37.15C29.0699 37.0421 29.3575 36.8555 29.5864 36.6073C29.8153 36.3592 29.9782 36.0575 30.06 35.73L30.62 33.48C30.694 33.1854 30.6998 32.8778 30.6368 32.5807C30.5739 32.2835 30.4438 32.0047 30.2567 31.7654C30.0695 31.5262 29.8302 31.3329 29.557 31.2002C29.2837 31.0675 28.9838 30.9991 28.68 31H27.51L26.13 28.9C25.9483 28.6231 25.7005 28.3958 25.4089 28.2387C25.1173 28.0816 24.7912 27.9995 24.46 28H21.42L19.27 25.83C18.9542 25.506 18.5371 25.2995 18.0878 25.245C17.6386 25.1904 17.1843 25.291 16.8 25.53L12.96 27.87C12.6681 28.0503 12.4269 28.3018 12.259 28.6009C12.091 28.9 12.0019 29.237 12 29.58V32.59C12.0002 32.8524 12.0524 33.1121 12.1537 33.3541C12.255 33.5962 12.4033 33.8157 12.59 34L14.18 35.59C14.3316 35.744 14.5072 35.8724 14.7 35.97L16 36.62V39.85C15.9982 40.0641 16.032 40.277 16.1 40.48L17.89 45.83C17.9914 46.1452 18.1742 46.4281 18.42 46.65C14.1933 45.0954 10.5449 42.2823 7.96651 38.59C5.38812 34.8976 4.00375 30.5035 4.00001 26C4.00301 24.7296 4.1134 23.4618 4.33001 22.21L6.06001 24.42C6.24334 24.6603 6.4794 24.8553 6.75001 24.99L11.11 27.18C11.3865 27.3176 11.6911 27.3895 12 27.39C12.3751 27.3862 12.7419 27.2789 13.06 27.08C13.3491 26.9008 13.5873 26.6504 13.7519 26.3527C13.9165 26.0551 14.0019 25.7201 14 25.38V23.54C14 23.2089 13.9177 22.883 13.7606 22.5915C13.6035 22.3 13.3765 22.0521 13.1 21.87L11 20.46V18.82L15.09 18.01C15.2561 17.9677 15.4171 17.9074 15.57 17.83L19.24 16C19.521 15.8681 19.7624 15.6646 19.94 15.41L22.58 11.88L25.85 11.06C26.3392 10.9541 26.7668 10.6594 27.04 10.24L27.98 8.84001C28.1621 8.55952 28.272 8.23835 28.2999 7.90511C28.3278 7.57186 28.2729 7.23689 28.14 6.93001C28.0068 6.62578 27.7999 6.35951 27.538 6.15525C27.2761 5.95098 26.9675 5.81515 26.64 5.76001L22.64 5.09001L22.21 4.33001C23.4618 4.11383 24.7297 4.00344 26 4.00001C29.1586 3.99905 32.2799 4.68131 35.15 6.00001H33.54C33.21 5.99994 32.885 6.08109 32.5938 6.23631C32.3025 6.39152 32.054 6.61602 31.87 6.89001L30.71 8.62001C30.4215 9.06215 30.3195 9.60043 30.4263 10.1175C30.5331 10.6345 30.84 11.0883 31.28 11.38L33.08 12.58C33.31 12.7368 33.5707 12.8429 33.8449 12.8911C34.119 12.9394 34.4003 12.9288 34.67 12.86L37.88 12.06L41.03 13.63C41.3077 13.7753 41.6166 13.8508 41.93 13.85C42.3223 13.8481 42.7051 13.7297 43.03 13.51L43.76 13.03C44.5137 14.055 45.1731 15.1461 45.73 16.29L42.83 17.95L38.39 17.06L35.82 15.35C35.4907 15.1227 35.1002 15.0007 34.7 15H31.54C31.21 14.9999 30.885 15.0811 30.5938 15.2363C30.3025 15.3915 30.054 15.616 29.87 15.89L28.39 18.1C28.2448 18.3314 28.1478 18.5897 28.1048 18.8595C28.0619 19.1293 28.0738 19.405 28.14 19.67L28.88 22.68C28.9684 23.0344 29.1521 23.3578 29.4112 23.6152C29.6704 23.8726 29.995 24.0541 30.35 24.14L33.45 24.89C33.821 24.9949 34.2151 24.9844 34.58 24.86L36.73 24.17L38 25.44V28.67C38.0008 29.1026 38.1411 29.5234 38.4 29.87L40.78 33.04C39.7063 34.9343 38.9273 36.9811 38.47 39.11C37.8215 38.4341 36.936 38.0362 36 38C32.41 38 30.18 44.41 30.02 47.62V47.62ZM35 51.86C34.1435 51.6389 33.3845 51.1401 32.8417 50.4417C32.2989 49.7432 32.0029 48.8846 32 48C32 44.96 34.23 40 36 40C36.62 40 37.36 40.64 38.06 41.77C38.02 42.19 38 42.6 38 43C38.0004 44.9324 38.7043 46.7986 39.98 48.25C39.9254 49.0885 39.6081 49.8885 39.0732 50.5364C38.5383 51.1844 37.8129 51.6475 37 51.86V47H35V51.86ZM45 60H37V53.91C38.0962 53.7232 39.1193 53.2367 39.9559 52.5042C40.7925 51.7717 41.41 50.8219 41.74 49.76C42.7271 50.3856 43.8404 50.7851 45 50.93V60ZM45 42.59L43.71 41.29L42.29 42.71L45 45.41V48.91C43.6036 48.6726 42.3359 47.9492 41.421 46.8678C40.5061 45.7864 40.0028 44.4165 40 43C40 38.04 43.1 31 46 31C48.9 31 52 38.04 52 43V43.1C51.3188 44.3319 50.7979 45.6459 50.45 47.01C49.5479 48.0152 48.3318 48.685 47 48.91V43.41L49.71 40.71L48.29 39.29L47 40.59V38H45V42.59ZM55 60H47V50.93C48.0583 50.8007 49.079 50.457 50 49.92V50C50.0028 51.4165 50.5061 52.7864 51.421 53.8678C52.3359 54.9492 53.6036 55.6726 55 55.91V60ZM55 53.86C54.1435 53.6389 53.3845 53.1401 52.8417 52.4417C52.2989 51.7432 52.0029 50.8846 52 50C52 46.96 54.23 42 56 42C57.77 42 60 46.96 60 50C59.9971 50.8846 59.7011 51.7432 59.1583 52.4417C58.6155 53.1401 57.8565 53.6389 57 53.86V49H55V53.86Z" fill="#8eb897" id="id_101"></path>
</svg>