<svg xmlns="http://www.w3.org/2000/svg" xml:space="preserve" width="1.70666in" height="1.70666in" version="1.1" style="shape-rendering:geometricPrecision; text-rendering:geometricPrecision; image-rendering:optimizeQuality; fill-rule:evenodd; clip-rule:evenodd" viewBox="0 0 1706.66 1706.66" xmlns:xlink="http://www.w3.org/1999/xlink" xmlns:xodm="http://www.corel.com/coreldraw/odm/2003">
 <defs>
  <style type="text/css">
   
    .fil0 {fill:black}
   
  </style>
 </defs>
 <g id="Layer_x0020_1">
  <metadata id="CorelCorpID_0Corel-Layer"></metadata>
  <path class="fil0" d="M133.46 1133.94c-7.86,0 -15.31,-4.67 -18.5,-12.39 -62.75,-152.13 -73.85,-323.48 -31.25,-482.43 129.63,-483.73 687.26,-707.38 1114.68,-451.97 22.62,13.52 2.09,47.84 -20.51,34.35 -406.1,-242.33 -932.68,-30.52 -1055.52,427.96 -40.33,150.53 -29.83,312.79 29.58,456.85 5.45,13.21 -4.5,27.63 -18.49,27.63z" id="id_101" style="fill: rgb(142, 184, 151);"></path>
  <path class="fil0" d="M968.31 236.44c-25.58,0 -26.73,-38.55 -1.1,-39.97l185.23 -10.21 -101.45 -155.3c-14.4,-22.04 19.13,-43.91 33.49,-21.87l120.41 184.31c8.39,12.86 -0.32,30.06 -15.65,30.92l-220.93 12.12z" id="id_102" style="fill: rgb(142, 184, 151);"></path>
  <path class="fil0" d="M828.66 1590.29c-70.04,0.02 -141.16,-9.04 -211.96,-28.03 -25.46,-6.81 -15.06,-45.54 10.34,-38.63 415.3,111.26 843.72,-136.09 955.02,-551.39 44.49,-166.02 32.39,-344.76 -34.07,-503.28 -10.15,-24.17 26.73,-39.66 36.89,-15.47 69.86,166.65 82.58,354.54 35.81,529.09 -98,365.81 -430.11,607.67 -792.02,607.7z" id="id_103" style="fill: rgb(142, 184, 151);"></path>
  <path class="fil0" d="M788.67 1706.63c-4.63,0 -9.27,-1.6 -13.04,-4.86l-166.79 -143.69c-11.68,-10.06 -8.01,-28.97 6.44,-34.03l207.83 -72.61c24.88,-8.65 38.01,29.08 13.19,37.76l-175.12 61.18 140.55 121.08c14.11,12.15 5.26,35.17 -13.06,35.17z" id="id_104" style="fill: rgb(142, 184, 151);"></path>
  <path class="fil0" d="M729.58 1280.8c-12.57,0 -22.16,-11.57 -19.58,-24.07l63.36 -306.25 -164.85 6.6c-12.9,0.63 -22.94,-11.31 -20.41,-23.93l99.01 -491.25c1.87,-9.33 10.08,-16.04 19.61,-16.04l331.32 0c14.58,0 24.28,15.23 18.14,28.44l-139.12 299.04 181.89 0c16.41,0 25.86,18.99 15.93,32.07l-369.37 487.48c-3.87,5.11 -9.83,7.92 -15.94,7.92zm68.54 -371.32c12.64,0 22.15,11.68 19.59,24.07l-50.61 244.63 291.62 -384.82 -173.02 -0.01c-14.58,0 -24.28,-15.22 -18.13,-28.44l139.12 -299.06 -283.59 0.01 -90.75 450.25 165.78 -6.62z" id="id_105" style="fill: rgb(142, 184, 151);"></path>
 </g>
</svg>