<svg xmlns="http://www.w3.org/2000/svg" xml:space="preserve" width="1.70666in" height="1.70666in" version="1.1" style="shape-rendering:geometricPrecision; text-rendering:geometricPrecision; image-rendering:optimizeQuality; fill-rule:evenodd; clip-rule:evenodd" viewBox="0 0 1707 1707" xmlns:xlink="http://www.w3.org/1999/xlink">
 <defs>
  <style type="text/css">
   
    .str0 {stroke:#373435;stroke-width:6.94488}
    .fil0 {fill:none}
    .fil1 {fill:black}
   
  </style>
 </defs>
<symbol id="Symbol1" viewBox="798 807 112 90">
 <line class="fil0 str0" x1="885" y1="811" x2="907" y2="896" id="id_101" style="stroke: rgb(142, 184, 151);"></line>
 <line class="fil0 str0" x1="885" y1="811" x2="799" y2="834" id="id_102" style="stroke: rgb(142, 184, 151);"></line>
</symbol>
 <g id="Layer_x0020_1">
  <metadata id="CorelCorpID_0Corel-Layer"></metadata>
  <g id="_466713608">
   <g>
    <g>
     <path class="fil1" d="M853 1706c-470,0 -853,-383 -853,-853 0,-469 383,-852 853,-852 469,0 852,383 852,852 0,470 -383,853 -852,853zm0 -1656c-444,0 -804,360 -804,803 0,444 360,804 804,804 443,0 803,-360 803,-804 0,-443 -360,-803 -803,-803z" id="id_103" style="fill: rgb(142, 184, 151);"></path>
    </g>
    <g>
     <path class="fil1" d="M603 1668c-1,0 -3,0 -5,0 -13,-3 -21,-15 -18,-29 29,-133 129,-237 262,-273 182,-50 363,37 428,208 4,12 -2,26 -14,32 -13,4 -26,-2 -32,-14 -57,-146 -212,-220 -371,-177 -115,30 -203,120 -228,235 -1,10 -11,18 -22,18z" id="id_104" style="fill: rgb(142, 184, 151);"></path>
    </g>
    <g>
     <path class="fil1" d="M650 1258c-41,0 -63,-58 -94,-137 -28,-72 -66,-172 -114,-187 -113,-39 -97,-117 -85,-168 9,-43 8,-53 -9,-60 -185,-85 -241,-237 -244,-243 -4,-13 2,-27 16,-31 12,-4 26,1 30,15 1,3 53,140 218,216 54,24 43,77 36,114 -11,50 -18,86 54,111 69,22 108,125 144,216 14,38 36,93 50,105 5,-5 20,-27 43,-105 -13,-19 -36,-61 -28,-107 7,-36 30,-65 72,-85 21,-12 30,-27 32,-49 1,-40 -29,-87 -72,-114 -22,-12 -25,-31 -27,-44 -1,-15 -4,-35 -109,-53 -42,-7 -108,-69 -108,-124 0,-24 11,-64 89,-79 112,-21 192,-56 202,-88 7,-22 14,-65 -7,-94 -19,-25 -58,-39 -115,-39 -21,6 -116,25 -251,-30 -12,-6 -18,-20 -14,-32 6,-12 20,-18 32,-14 132,54 222,29 222,28 3,0 4,-2 7,-2 75,0 127,20 156,59 34,44 27,98 16,137 -21,66 -143,102 -240,120 -22,5 -49,13 -49,31 0,29 49,73 68,76 118,20 144,49 150,94 0,3 1,7 1,9 60,36 99,99 97,156 -1,40 -22,72 -56,90 -28,14 -43,32 -48,53 -6,37 25,78 25,78 6,5 7,13 5,22 -31,109 -56,151 -92,154 -1,1 -3,1 -3,1z" id="id_105" style="fill: rgb(142, 184, 151);"></path>
    </g>
    <g>
     <path class="fil1" d="M1584 1265c-7,0 -14,-3 -19,-10 -36,-48 -112,-79 -148,-88 -9,-3 -39,5 -61,11 -54,12 -115,27 -149,-3 -16,-15 -23,-39 -18,-71 24,-144 71,-204 197,-245 11,-4 17,-7 18,-11 3,-13 17,-21 29,-18 13,3 21,16 18,29 -8,30 -39,41 -50,46 -108,36 -144,80 -165,207 -2,14 -1,24 3,28 14,13 70,0 104,-8 36,-8 64,-15 85,-10 12,3 119,33 173,105 8,12 5,27 -4,35 -2,2 -7,3 -13,3z" id="id_106" style="fill: rgb(142, 184, 151);"></path>
    </g>
    <g>
     <path class="fil1" d="M1681 877l-828 0c-14,0 -25,-11 -25,-25l0 -826c0,-14 11,-25 25,-25 13,0 25,11 25,25l0 802 803 0c14,0 25,11 25,25 0,14 -12,24 -25,24z" id="id_107" style="fill: rgb(142, 184, 151);"></path>
    </g>
    <g>
     <path class="fil1" d="M1522 878c-14,0 -25,-11 -25,-25 0,-356 -290,-645 -646,-645 -14,0 -25,-12 -25,-25 0,-14 11,-25 25,-25 383,0 695,311 695,694 1,15 -10,26 -24,26z" id="id_108" style="fill: rgb(142, 184, 151);"></path>
    </g>
    <g>
     <path class="fil1" d="M1327 878c-14,0 -25,-11 -25,-25 0,-246 -201,-449 -449,-449 -14,0 -25,-11 -25,-25 0,-13 11,-25 25,-25 274,0 497,224 497,498 0,15 -10,26 -23,26z" id="id_109" style="fill: rgb(142, 184, 151);"></path>
    </g>
   </g>
  </g>
 </g>
</svg>