<svg id="line" xmlns="http://www.w3.org/2000/svg" viewBox="0 0 64 64"><path d="M16,41v6H13a1,1,0,0,0-1,1v3H8.042A4.046,4.046,0,0,0,4,55.042V62H6V55.042A2.044,2.044,0,0,1,8.042,53H12v2H9a1,1,0,0,0-1,1v6h2V57h2v1a1,1,0,0,0,1,1h3v2a1,1,0,0,0,1,1H59a1,1,0,0,0,1-1V23a1,1,0,0,0-1-1H53a1,1,0,0,0-1,1V40H50V23a1,1,0,0,0-1-1H43a1,1,0,0,0-1,1V40H38V32a1,1,0,0,0-1.669-.743L28,38.755V32a1,1,0,0,0-1.669-.743l-10,9A1,1,0,0,0,16,41Zm0,9v7H14V49h2ZM54,24h4v5H54Zm0,7h4v9H54ZM44,24h4v5H44Zm0,7h4v9H44ZM18,51h8v4H18Zm0,7V57h9a1,1,0,0,0,1-1V50a1,1,0,0,0-1-1H18V41.445l8-7.2V41a1,1,0,0,0,1.669.743L36,34.245V41a1,1,0,0,0,1,1H58V60H18Z" id="id_101" style="fill: rgb(142, 184, 151);"></path><path d="M31,2H27a1,1,0,0,0-1,1V6H23a1,1,0,0,0-1,1v4a1,1,0,0,0,1,1h3v3a1,1,0,0,0,1,1h4a1,1,0,0,0,1-1V12h3a1,1,0,0,0,1-1V7a1,1,0,0,0-1-1H32V3A1,1,0,0,0,31,2Zm3,6v2H31a1,1,0,0,0-1,1v3H28V11a1,1,0,0,0-1-1H24V8h3a1,1,0,0,0,1-1V4h2V7a1,1,0,0,0,1,1Z" id="id_102" style="fill: rgb(142, 184, 151);"></path><polygon points="43 10 43 13 40 13 40 15 43 15 43 18 45 18 45 15 48 15 48 13 45 13 45 10 43 10" id="id_103" style="fill: rgb(142, 184, 151);"></polygon><rect x="52" y="14" width="2" height="2" id="id_104" style="fill: rgb(142, 184, 151);"></rect><rect x="50" y="16" width="2" height="2" id="id_105" style="fill: rgb(142, 184, 151);"></rect><rect x="52" y="18" width="2" height="2" id="id_106" style="fill: rgb(142, 184, 151);"></rect><rect x="54" y="16" width="2" height="2" id="id_107" style="fill: rgb(142, 184, 151);"></rect><path d="M48,49H45.9a4.869,4.869,0,0,0-3.311,1.31A7.784,7.784,0,0,0,35.225,45H32a1,1,0,0,0-1,1v3.225A7.784,7.784,0,0,0,38.775,57H44.1A4.91,4.91,0,0,0,49,52.1V50A1,1,0,0,0,48,49ZM35.225,47A5.761,5.761,0,0,1,37,47.282v2.3L34.414,47ZM33,49.225v-.811L35.586,51h-2.3A5.761,5.761,0,0,1,33,49.225ZM38.775,55a5.76,5.76,0,0,1-4.36-2h3.171l2,2ZM41,53.586l-2-2V48.415a5.76,5.76,0,0,1,2,4.36Zm6-1.49A2.908,2.908,0,0,1,44.1,55H43V53.9A2.908,2.908,0,0,1,45.9,51H47Z" id="id_108" style="fill: rgb(142, 184, 151);"></path></svg>