<svg xmlns="http://www.w3.org/2000/svg" xml:space="preserve" width="1.70666in" height="1.70666in" version="1.1" style="shape-rendering:geometricPrecision; text-rendering:geometricPrecision; image-rendering:optimizeQuality; fill-rule:evenodd; clip-rule:evenodd" viewBox="0 0 1707 1707" xmlns:xlink="http://www.w3.org/1999/xlink">
 <defs>
  <style type="text/css">
   
    .str0 {stroke:black;stroke-width:80;stroke-linecap:round;stroke-linejoin:round}
    .fil0 {fill:none}
   
  </style>
 </defs>
 <g id="Layer_x0020_1">
  <metadata id="CorelCorpID_0Corel-Layer"></metadata>
  <path class="fil0 str0" d="M1108 1084c-14,9 -28,19 -42,27m-471 0c-39,-23 -75,-52 -106,-85l-236 14 -64 -110 188 -108c-9,-37 -14,-76 -14,-115 0,-47 7,-93 20,-136l-130 -198 64 -110 188 109c60,-59 135,-101 220,-121l106 -211 127 0 0 217c83,23 157,69 214,131l236 -15 64 111 -188 108c9,37 14,75 14,115 0,47 -7,93 -20,136l1 2" id="id_101" style="stroke: rgb(142, 184, 151);"></path>
  <path class="fil0 str0" d="M1602 1470c0,0 -54,-45 -193,0 -209,66 -176,-67 -386,0 -209,66 -176,-67 -385,0 -210,66 -177,-67 -386,0 -139,44 -193,0 -193,0" id="id_102" style="stroke: rgb(142, 184, 151);"></path>
  <path class="fil0 str0" d="M249 1647c0,0 54,-44 193,0 209,67 177,-66 386,0 209,67 177,-66 386,0" id="id_103" style="stroke: rgb(142, 184, 151);"></path>
  <path class="fil0 str0" d="M831 502c-482,546 481,546 0,0z" id="id_104" style="stroke: rgb(142, 184, 151);"></path>
  <circle class="fil0 str0" cx="1378" cy="1097" r="270" id="id_105" style="stroke: rgb(142, 184, 151);"></circle>
  <path class="fil0 str0" d="M1216 1470c-164,-117 -164,-538 -164,-538 58,-58 94,-137 94,-225 0,-174 -141,-316 -315,-316 -175,0 -316,142 -316,316 0,88 36,167 94,225 0,0 0,421 -164,538" id="id_106" style="stroke: rgb(142, 184, 151);"></path>
  <path class="fil0 str0" d="M831 1078c-271,307 270,307 0,0z" id="id_107" style="stroke: rgb(142, 184, 151);"></path>
  <g id="_590117920">
   <polyline class="fil0 str0" points="1360,1242 1457,1097 1298,1097 " id="id_108" style="stroke: rgb(142, 184, 151);"></polyline>
   <line class="fil0 str0" x1="1395" y1="952" x2="1298" y2="1097" id="id_109" style="stroke: rgb(142, 184, 151);"></line>
  </g>
 </g>
</svg>