<svg xmlns="http://www.w3.org/2000/svg" xml:space="preserve" width="1.70666in" height="1.70666in" style="shape-rendering:geometricPrecision; text-rendering:geometricPrecision; image-rendering:optimizeQuality; fill-rule:evenodd; clip-rule:evenodd" viewBox="0 0 1.70666 1.70666" xmlns:xlink="http://www.w3.org/1999/xlink">
 <defs>
  <style type="text/css">
   
    .fil0 {fill:black}
   
  </style>
 </defs>
 <g id="Layer_x0020_1">
  <metadata id="CorelCorpID_0Corel-Layer"></metadata>
  <g id="_428101168">
   <g>
    <g>
     <g id="_428100088">
      <path id="_471163840" class="fil0" d="M0.488862 1.23436c-0.210094,0 -0.381024,-0.170925 -0.381024,-0.381024 0,-0.210102 0.170929,-0.381028 0.381024,-0.381028 0.130929,0 0.251138,0.066 0.321567,0.176555 0.00642913,0.0100945 0.00345669,0.0234882 -0.00663386,0.0299173 -0.0100945,0.0064252 -0.0234882,0.00345669 -0.0299173,-0.00663386 -0.0624252,-0.0979961 -0.168976,-0.156504 -0.285012,-0.156504 -0.186205,0 -0.337693,0.151488 -0.337693,0.337693 0,0.186201 0.151488,0.337693 0.337693,0.337693 0.116031,0 0.222579,-0.0585079 0.285016,-0.156508 0.00643307,-0.0100906 0.0198228,-0.013063 0.0299173,-0.00662992 0.0100945,0.00642913 0.0130591,0.0198228 0.00662992,0.0299134 -0.0704331,0.110555 -0.190646,0.176555 -0.321567,0.176555z" style="fill: rgb(142, 184, 151);"></path>
     </g>
     <g id="_428099824">
      <path id="_471163576" class="fil0" d="M0.488862 1.34217c-0.269547,0 -0.488839,-0.219291 -0.488839,-0.488839 0,-0.269551 0.219291,-0.488843 0.488839,-0.488843 0.148976,0 0.28798,0.0667008 0.381358,0.183 0.00749606,0.00932677 0.00600394,0.0229685 -0.00332677,0.0304567 -0.00933465,0.00749606 -0.0229685,0.006 -0.0304606,-0.00332677 -0.0851142,-0.106 -0.211799,-0.166799 -0.347571,-0.166799 -0.245654,0 -0.445508,0.199854 -0.445508,0.445508 0,0.245654 0.199854,0.445508 0.445508,0.445508 0.13578,0 0.262472,-0.0607913 0.347583,-0.166783 0.00749213,-0.00933858 0.021126,-0.0108228 0.0304567,-0.00333071 0.00933465,0.00749213 0.0108228,0.0211299 0.00333071,0.0304606 -0.0933819,0.116291 -0.232382,0.182988 -0.38137,0.182988z" style="fill: rgb(142, 184, 151);"></path>
     </g>
     <g id="_428097136">
      <path id="_471163912" class="fil0" d="M0.418268 0.980232c-0.00554331,0 -0.0110866,-0.00211417 -0.0153189,-0.00634252l-0.0692992 -0.0693031c-0.00846457,-0.00846063 -0.00846457,-0.0221772 0,-0.0306417 0.00845669,-0.00845276 0.0221772,-0.00845276 0.0306378,0l0.0539803 0.0539843 0.195169 -0.195157c0.00846063,-0.00846457 0.0221811,-0.00846457 0.0306417,0 0.00846063,0.00846063 0.00846063,0.0221772 0,0.0306378l-0.210488 0.21048c-0.00423228,0.00422835 -0.00977559,0.00634252 -0.0153228,0.00634252z" style="fill: rgb(142, 184, 151);"></path>
     </g>
     <g id="_428100376">
      <path id="_471163288" class="fil0" d="M1.07791 1.01489c-0.00554724,0 -0.0110906,-0.00211417 -0.0153228,-0.00634252 -0.00846063,-0.00846063 -0.00846063,-0.0221772 0,-0.0306417l0.124575 -0.124571 -0.124575 -0.124579c-0.00846063,-0.00845669 -0.00846063,-0.0221772 0,-0.0306378 0.00846457,-0.00846457 0.0221772,-0.00846457 0.0306417,0l0.124575 0.124575 0.124567 -0.124571c0.0084685,-0.00846063 0.022185,-0.00845669 0.0306457,0 0.00845669,0.00846457 0.00845669,0.0221811 0,0.0306417l-0.124571 0.124571 0.124571 0.124563c0.00845669,0.00846457 0.00845669,0.0221811 0,0.0306417 -0.00846457,0.00845669 -0.0221811,0.00845669 -0.0306457,0l-0.124567 -0.124567 -0.124575 0.124575c-0.00422835,0.00422835 -0.00977559,0.00634252 -0.0153189,0.00634252z" style="fill: rgb(142, 184, 151);"></path>
     </g>
     <g id="_428101120">
      <path id="_471163216" class="fil0" d="M1.2178 1.23435c-0.210098,0 -0.381028,-0.170925 -0.381028,-0.38102 0,-0.210098 0.170925,-0.381028 0.381028,-0.381028 0.210102,0 0.381031,0.170929 0.381031,0.381028 0,0.210094 -0.170929,0.38102 -0.381031,0.38102zm0 -0.718713c-0.186201,0 -0.337693,0.151488 -0.337693,0.337693 0,0.186201 0.151488,0.337689 0.337693,0.337689 0.186209,0 0.337701,-0.151484 0.337701,-0.337689 0,-0.186205 -0.151492,-0.337693 -0.337701,-0.337693z" style="fill: rgb(142, 184, 151);"></path>
     </g>
     <g id="_428100784">
      <path id="_471163048" class="fil0" d="M1.2178 1.34217c-0.269547,0 -0.488835,-0.219295 -0.488835,-0.488839 0,-0.269551 0.219287,-0.488843 0.488835,-0.488843 0.269547,0 0.488843,0.219291 0.488843,0.488843 0,0.269543 -0.219295,0.488839 -0.488843,0.488839zm0 -0.93435c-0.24565,0 -0.445504,0.199854 -0.445504,0.445512 0,0.245654 0.199854,0.445504 0.445504,0.445504 0.245654,0 0.445508,-0.19985 0.445508,-0.445504 3.93701e-006,-0.245657 -0.199854,-0.445512 -0.445508,-0.445512z" style="fill: rgb(142, 184, 151);"></path>
     </g>
    </g>
    <g>
     <g>
      <g id="_428100640">
       <path id="_471161920" class="fil0" d="M0.844787 0.267642c-0.0119685,0 -0.0216654,-0.00970079 -0.0216654,-0.0216654l0 -0.155079c0,-0.0119685 0.00969685,-0.0216654 0.0216654,-0.0216654 0.0119646,0 0.0216654,0.00969685 0.0216654,0.0216654l0 0.155079c3.93701e-006,0.0119606 -0.00970079,0.0216654 -0.0216654,0.0216654z" style="fill: rgb(142, 184, 151);"></path>
      </g>
      <g id="_428101144">
       <path id="_471161128" class="fil0" d="M1.0289 0.28139c-0.00291339,0 -0.00587402,-0.000590551 -0.0087126,-0.00183858 -0.0109528,-0.00482283 -0.0159252,-0.0176063 -0.0111102,-0.0285591l0.0658976 -0.149795c0.0048189,-0.0109528 0.0176024,-0.0159252 0.0285551,-0.0111102 0.0109528,0.00482283 0.0159252,0.0176063 0.0111102,0.0285591l-0.0658937 0.149795c-0.00357087,0.00811417 -0.0115118,0.0129488 -0.0198465,0.0129488z" style="fill: rgb(142, 184, 151);"></path>
      </g>
      <g id="_428100688">
       <path id="_471161560" class="fil0" d="M0.66111 0.283398c-0.00833465,0 -0.0162756,-0.00483465 -0.0198465,-0.0129488l-0.0658937 -0.149795c-0.00482283,-0.0109528 0.000153543,-0.0237402 0.0111102,-0.0285591 0.0109488,-0.00481496 0.0237402,0.00015748 0.0285551,0.0111102l0.0658976 0.149799c0.00481496,0.0109528 -0.00015748,0.0237362 -0.0111102,0.0285551 -0.00284252,0.00124803 -0.00579921,0.00183858 -0.0087126,0.00183858z" style="fill: rgb(142, 184, 151);"></path>
      </g>
     </g>
     <g>
      <g id="_428101048">
       <path id="_471160456" class="fil0" d="M0.861453 1.63743c-0.0119685,0 -0.0216654,-0.00969685 -0.0216654,-0.0216654l0 -0.155079c0,-0.0119646 0.00969685,-0.0216654 0.0216654,-0.0216654 0.0119685,0 0.0216654,0.00970079 0.0216654,0.0216654l0 0.155079c0,0.0119685 -0.00970079,0.0216654 -0.0216654,0.0216654z" style="fill: rgb(142, 184, 151);"></path>
      </g>
      <g id="_428100832">
       <path id="_471160696" class="fil0" d="M1.11148 1.61841c-0.00833465,0 -0.0162756,-0.00483465 -0.0198465,-0.0129528l-0.0658937 -0.149795c-0.00481496,-0.0109528 0.00015748,-0.0237402 0.0111102,-0.0285551 0.0109646,-0.00480709 0.0237362,0.000161417 0.0285551,0.0111102l0.0658976 0.149795c0.00481496,0.0109528 -0.00015748,0.0237402 -0.0111102,0.0285551 -0.00283858,0.00125197 -0.00579921,0.00184252 -0.0087126,0.00184252z" style="fill: rgb(142, 184, 151);"></path>
      </g>
      <g id="_428100880">
       <path id="_471160504" class="fil0" d="M0.611858 1.6164c-0.00291732,0 -0.00587402,-0.000594488 -0.0087126,-0.00184252 -0.0109528,-0.00481496 -0.0159291,-0.0176024 -0.0111102,-0.0285551l0.0658898 -0.149791c0.00482283,-0.0109528 0.0176102,-0.0159173 0.0285551,-0.0111102 0.0109528,0.00481496 0.0159291,0.0176024 0.0111102,0.0285551l-0.0658898 0.149791c-0.00357087,0.00811811 -0.0115118,0.0129528 -0.0198425,0.0129528z" style="fill: rgb(142, 184, 151);"></path>
      </g>
     </g>
    </g>
   </g>
  </g>
 </g>
</svg>