<svg id="Layer_1" data-name="Layer 1" xmlns="http://www.w3.org/2000/svg" viewBox="0 0 512 512"><title>Leaf</title><path d="M466.511,51.547a10.666,10.666,0,0,0-17.165-6.555c-34.961,27.872-80.834,38.132-129.4,48.995C250.46,109.529,171.7,127.144,110.454,201.61,72.208,248.109,65.91,298.1,67.361,331.846A208.535,208.535,0,0,0,77.9,389.35c-24.112,37.593-34.111,64.37-34.575,65.632a10.667,10.667,0,0,0,20.017,7.378c.1-.283,9.277-24.71,30.944-59.01a373.026,373.026,0,0,0,100.63,15.4q1.93.022,3.847.022c34.147,0,65.8-5.308,94.139-15.792a212.739,212.739,0,0,0,93.18-67.085c54.914-68.27,73.875-141.786,80.114-191.438C472.958,90.59,466.778,53.117,466.511,51.547Zm-21.583,91.011c-5.963,46.706-23.9,115.842-75.472,179.961a191.664,191.664,0,0,1-83.63,60.326c-26.853,9.986-57.171,14.894-90.044,14.574a356.544,356.544,0,0,1-89.09-12.718c7.917-11.309,17.521-23.954,28.93-37.294,12.736,2.563,42.2,7.849,68.517,7.848a153.261,153.261,0,0,0,15.414-.715,10.666,10.666,0,0,0-2.16-21.223c-20.234,2.054-47.285-1.5-65.024-4.523a499.479,499.479,0,0,1,44.339-41.52c11.955,3.551,40.835,10.74,78.78,10.739a296.51,296.51,0,0,0,30.076-1.523A10.667,10.667,0,1,0,303.4,275.27a278.774,278.774,0,0,1-85.413-4.66c12.425-9.187,25.762-18.143,40.056-26.669s28-17.067,41.073-25.588a285.152,285.152,0,0,0,40.128,3.277,121.986,121.986,0,0,0,22.006-1.735,10.667,10.667,0,1,0-3.944-20.966c-8.975,1.688-20.407,1.614-30.8.942,18.378-12.843,35.277-25.613,50.542-38.228a10.667,10.667,0,1,0-13.59-16.445q-23.578,19.484-52.391,39.435a84.913,84.913,0,0,1,6.027-16.13A10.667,10.667,0,0,0,298.4,158.221c-.419.759-9.635,17.722-11.931,42.905q-18.8,12.224-39.355,24.492c-14.435,8.61-27.929,17.643-40.538,26.906,3.671-28.409,12.632-56.473,12.747-56.829a10.667,10.667,0,0,0-20.3-6.552c-.611,1.893-14.341,44.83-15.272,81.173A520.608,520.608,0,0,0,140.537,310.3a134.149,134.149,0,0,1,7.381-38.541,10.667,10.667,0,0,0-19.86-7.79c-.547,1.392-12.75,33.042-7.758,68.541-10.262,11.935-19.164,23.369-26.76,33.875a193.855,193.855,0,0,1-4.9-36.243c-1.683-43.36,11.2-82.046,38.289-114.981,56.589-68.8,128.31-84.842,197.671-100.356,44.491-9.951,86.83-19.421,122.666-42.182A367.479,367.479,0,0,1,444.928,142.558Z" id="id_101" style="fill: rgb(142, 184, 151);"></path></svg>