<svg id="Line" xmlns="http://www.w3.org/2000/svg" viewBox="0 0 64 64"><title>1</title><path fill="#8EB897" d="M42.70865,25.32349a1.6544,1.6544,0,0,0,1.55273-1.05567L48.734,13.02905a1.67625,1.67625,0,0,0-2.46631-2.03027l-2.22461,1.42871L40.90885,7.29321a3.87759,3.87759,0,0,0-3.35694-1.8916H23.35513a3.95681,3.95681,0,0,0-3.39062,1.92822l-5.439,9.24707a2.95014,2.95014,0,0,0,1.10937,4.07569l6.231,3.457a2.93608,2.93608,0,0,0,3.958-1.06348l4.38428-7.30176,2.1377,3.41163-2.75781,1.58837a1.68382,1.68382,0,0,0,.63232,3.13184L42.49576,25.3103A1.74221,1.74221,0,0,0,42.70865,25.32349ZM24.10806,22.01831a.95706.95706,0,0,1-1.27294.3418l-6.23243-3.458a.9301.9301,0,0,1-.45019-.57373.94872.94872,0,0,1,.09717-.73828l5.43652-9.24268a1.94693,1.94693,0,0,1,1.66894-.9458h1.63331l4.0288,6.44092Zm7.30372-.0166,2.83154-1.63037a1.00064,1.00064,0,0,0,.34863-1.39746L31.03775,13.301l-.00146-.002L27.34781,7.40161h10.2041a1.8974,1.8974,0,0,1,1.646.92676L42.8693,14.343a.9998.9998,0,0,0,1.394.32031l2.24023-1.439-4.0083,10.07226Z" id="id_119"></path><path fill="#8EB897" d="M25.67642,42.91724l-8.51611-.146,1.88623-3.55713,2.75488,1.59473a1.684,1.684,0,0,0,2.39551-2.11426L19.30142,27.34644a1.66558,1.66558,0,0,0-1.78564-1.00782L5.54605,28.08569a1.67588,1.67588,0,0,0-.5249,3.15039L7.37076,32.448,4.49088,37.72974a3.88118,3.88118,0,0,0,.04052,3.853L10.53531,51.9812l.001.002L11.63,53.87769a3.95694,3.95694,0,0,0,3.36572,1.97216l10.72656.08643h.02442a2.9488,2.9488,0,0,0,2.95117-2.99854l-.1211-7.12451A2.93822,2.93822,0,0,0,25.67642,42.91724ZM11.36588,49.42017,6.26334,40.58276a1.90039,1.90039,0,0,1-.02-1.88916l3.37305-6.18652a.99957.99957,0,0,0-.41944-1.36719l-2.36621-1.2207,10.72754-1.56543,4.41992,10.24658-2.82812-1.63721a.99945.99945,0,0,0-1.38428.39747L14.6315,43.27222l-.00146.002ZM26.42642,53.6521a.91.91,0,0,1-.68847.28418l-10.72266-.08643a1.9444,1.9444,0,0,1-1.65283-.97216l-.8169-1.41456L16.109,44.75366l9.53467.16358a.95657.95657,0,0,1,.9331.93164l.1211,7.126A.92933.92933,0,0,1,26.42642,53.6521Z" id="id_120"></path><path fill="#8EB897" d="M59.49967,35.89331l-5.28907-9.3335a2.94873,2.94873,0,0,0-4.084-1.07714l-6.10938,3.66748a2.93553,2.93553,0,0,0-1.0581,3.959L47.091,40.55737l-4.02392.14551.00342-3.1831a1.68421,1.68421,0,0,0-3.02881-1.01807l-7.3794,9.91357a1.65844,1.65844,0,0,0,.02,2.0503l7.49707,9.49316a1.67616,1.67616,0,0,0,2.99121-1.12061L43.04508,54.197l6.01416-.14648a3.88259,3.88259,0,0,0,3.31689-1.96192l6.0044-10.40039.00048-.00146,1.09327-1.89258A3.95788,3.95788,0,0,0,59.49967,35.89331ZM50.6442,51.08862a1.90082,1.90082,0,0,1-1.62647.96241l-7.04443.17187a1.00028,1.00028,0,0,0-.97461,1.04688l.12646,2.65966L34.4064,47.42212l6.66309-8.95166-.00342,3.26807A1.00018,1.00018,0,0,0,42.10221,42.739l6.68994-.2417.00293-.00048,6.95068-.24561Zm7.09765-12.29443-.8164,1.41406-7.59229.26856-4.626-8.33985a.95535.95535,0,0,1,.34033-1.273l6.11133-3.668a.92274.92274,0,0,1,.481-.13476.958.958,0,0,1,.83106.48486l5.28662,9.33008A1.94627,1.94627,0,0,1,57.74185,38.79419Z" id="id_121"></path></svg>