<?xml version="1.0" encoding="iso-8859-1"?>
<!-- Uploaded to: SVG Repo, www.svgrepo.com, Generator: SVG Repo Mixer Tools -->
<!DOCTYPE svg PUBLIC "-//W3C//DTD SVG 1.1//EN" "http://www.w3.org/Graphics/SVG/1.1/DTD/svg11.dtd">
<svg fill="#000000" version="1.1" id="Capa_1" xmlns="http://www.w3.org/2000/svg" xmlns:xlink="http://www.w3.org/1999/xlink" 
	 width="800px" height="800px" viewBox="0 0 577.897 577.897"
	 xml:space="preserve">
<g>
	<path fill="#8EB897" d="M301.368,155.323c24.815,0,45.019-20.197,45.019-45.019c0-24.829-20.203-45.023-45.019-45.023
		c-24.831,0-45.028,20.194-45.028,45.023C256.34,135.126,276.537,155.323,301.368,155.323z M301.368,73.719
		c20.162,0,36.576,16.412,36.576,36.585c0,20.171-16.414,36.583-36.576,36.583c-20.18,0-36.583-16.412-36.583-36.583
		C264.785,90.126,281.188,73.719,301.368,73.719z M231.915,88.343c-0.023-0.278,0.01-0.558,0.101-0.831
		c0.354-1.108,1.554-1.715,2.658-1.358l11.542,3.748c1.108,0.362,1.715,1.552,1.351,2.663c-0.292,0.892-1.113,1.456-1.998,1.456
		c0,0,0,0-0.009,0c-0.215,0-0.439-0.028-0.653-0.1l-11.537-3.746C232.531,89.902,231.992,89.16,231.915,88.343z M257.927,53.968
		c-0.686-0.943-0.481-2.266,0.469-2.95c0.942-0.688,2.271-0.48,2.954,0.464l7.129,9.817c0.688,0.945,0.479,2.264-0.471,2.947
		c-0.369,0.273-0.808,0.401-1.239,0.401c-0.644,0-1.295-0.301-1.701-0.871l-0.009-0.004L257.927,53.968z M334.448,64.046
		c-0.942-0.688-1.147-2.002-0.471-2.952l7.122-9.812c0.69-0.952,2.011-1.153,2.959-0.464c0.938,0.684,1.143,1.998,0.457,2.95
		l-7.117,9.81c-0.416,0.569-1.06,0.875-1.708,0.875C335.25,64.452,334.822,64.319,334.448,64.046z M355.058,92.243
		c-0.364-1.104,0.242-2.294,1.354-2.656l11.532-3.757c1.12-0.364,2.306,0.247,2.665,1.358c0.354,1.108-0.252,2.298-1.363,2.656
		l-11.527,3.757c-0.22,0.072-0.443,0.105-0.658,0.105C356.173,93.706,355.352,93.136,355.058,92.243z M370.716,132.221
		c-0.29,0.894-1.125,1.463-2.007,1.463c-0.215,0-0.438-0.035-0.649-0.105l-11.537-3.748c-1.115-0.359-1.717-1.549-1.362-2.658
		c0.364-1.108,1.568-1.72,2.665-1.356l11.532,3.746C370.473,129.922,371.071,131.112,370.716,132.221z M337.664,155.953l7.132,9.812
		c0.681,0.936,0.48,2.266-0.472,2.947c-0.373,0.273-0.808,0.401-1.236,0.401c-0.654,0-1.289-0.301-1.704-0.868l-7.131-9.808
		c-0.687-0.94-0.481-2.266,0.462-2.947C335.652,154.812,336.982,155.008,337.664,155.953z M302.357,166.549
		c0.757,0.32,1.284,1.069,1.284,1.944v12.13c0,1.167-0.938,2.107-2.114,2.107c-1.158,0-2.105-0.94-2.105-2.107v-12.13
		c0-1.167,0.943-2.107,2.105-2.107C301.816,166.381,302.096,166.44,302.357,166.549z M268.278,155.682
		c0.469,0.338,0.756,0.845,0.842,1.386c0.086,0.53-0.028,1.097-0.378,1.566l-7.126,9.817c-0.411,0.574-1.055,0.868-1.706,0.868
		c-0.434,0-0.859-0.124-1.241-0.397c-0.469-0.343-0.761-0.845-0.842-1.379c-0.042-0.269-0.038-0.542,0.035-0.81
		c0.056-0.266,0.17-0.53,0.343-0.759l7.126-9.817C266.024,155.204,267.338,154.999,268.278,155.682z M247.671,127.483
		c0.354,1.116-0.252,2.306-1.36,2.663v0.005l-11.537,3.748c-0.215,0.072-0.441,0.1-0.646,0.1c-0.898,0-1.725-0.564-2.016-1.454
		c-0.091-0.282-0.11-0.558-0.091-0.835c0.067-0.819,0.616-1.559,1.454-1.832l11.537-3.746
		C246.124,125.769,247.318,126.384,247.671,127.483z M299.082,51.254v-0.009v-12.13c0-1.167,0.942-2.107,2.109-2.107
		c1.171,0,2.104,0.945,2.104,2.107v12.139c0,1.165-0.934,2.107-2.104,2.107C300.033,53.366,299.082,52.418,299.082,51.254z
		 M575.909,397.857c1.988-1.363,2.576-4.032,1.349-6.104c-1.228-2.077-3.869-2.838-6.002-1.736
		c-1.404,0.714-2.852,1.312-4.293,1.933c-9.899-23.499-31.466-49.322-63.594-75.215l-7.426-109.698
		c-0.233-3.526-3.174-6.27-6.711-6.27h-223.84C130.072,162.925,22.816,172.862,3.125,225.681
		c-13.07,35.087,15.604,80.799,71.873,124.604l-7.11,104.977c-0.126,1.857,0.52,3.687,1.797,5.05
		c1.271,1.362,3.047,2.137,4.907,2.137h212.55v31.521l-96.566,20.167c-3.207,0.667-5.467,3.561-5.349,6.833
		c0.131,3.28,2.595,5.997,5.85,6.417l102.832,13.408c0.178,0.014,0.327,0.094,0.5,0.094c0.103,0,0.219-0.019,0.321-0.019
		c0.107,0,0.22,0.019,0.327,0.019c0.178,0,0.326-0.08,0.494-0.094l92.895-12.116l-6.422-2.212l13.566-13.025l-95.003-19.826v-31.167
		h9.413c38.784,10.716,76.452,17.707,111.329,20.526c2.161,3.416,4.564,6.889,7.411,10.464c-1.213,1.582-2.417,3.117-3.654,4.555
		c-2.45,3.127-4.998,5.848-7.309,8.447c-2.264,2.66-4.593,4.732-6.562,6.795c-1.951,2.035-3.804,3.748-5.391,5.083
		c-3.09,2.758-4.808,4.401-4.808,4.401l9.344,3.225l19.714-23.326c1.475-1.451,2.987-2.945,4.536-4.467
		c0.443-0.476,0.883-1.008,1.316-1.502c8.555,1.502,16.372,2.296,23.186,2.296c4.882,0,9.307-0.42,13.395-1.176
		c0.005,0,0.01,0.009,0.01,0.009c6.996,2.59,13.311,3.762,19.047,3.762c19.442,0,32.188-13.502,42.26-30.709l0.21,0.48
		c18.248-7.967,30.747-19.84,36.156-34.336c3.892-10.463,3.962-22.112,0.49-34.555C572.353,400.695,574.075,399.108,575.909,397.857
		z M287.143,526.351l-54.955-7.169l54.955-11.472V526.351z M489.283,307.792l2.89,42.592h-72.237l-9.32-8.064l-1.083-26.673
		l8.527-7.854H489.283L489.283,307.792z M488.826,301.076h-70.375l-9.88-9.05l-1.102-27.12l8.434-7.759h69.955L488.826,301.076z
		 M482.945,214.214l2.46,36.207h-69.282l-9.601-8.788l-1.11-27.419H482.945z M298.409,214.214h100.268l1.153,28.341l-7.565,7.866
		H306.32l-7.911-8.216V214.214z M298.409,264.243l7.565-7.096h87.144l7.57,6.594l1.199,29.573l-7.467,7.762h-88.026l-7.985-8.298
		V264.243z M298.409,314.059l7.197-6.268h89.841l7.295,6.347l1.186,29.17l-6.805,7.065h-89.524l-9.185-8.219v-28.096H298.409z
		 M298.409,365.682l9.955-8.578h88.581l7.841,7.262l1.092,26.948l-7.435,7.262h-91.582l-8.452-8.252V365.682z M248.705,433.187
		c-20.526-7.646-40.184-15.957-58.845-24.717l3.426-3.179h89.904l8.498,8.335v34.149
		C277.435,443.389,263.088,438.544,248.705,433.187z M196.627,307.792h86.133l8.933,8.224v27.246l-8.058,7.112H194.72l-7.208-7.485
		l1.144-28.152L196.627,307.792z M189.544,292.889l1.16-28.555l8.258-7.194h84.18l8.55,7.437v28.173l-9.087,8.321h-85.19
		L189.544,292.889z M195.136,357.104h88.766l7.792,7.532v27.098l-7.943,6.832h-90.354l-7.836-7.645l1.05-25.935L195.136,357.104z
		 M184.871,242.25l-8.919,8.167H95.232l2.453-36.207h88.327L184.871,242.25z M175.928,257.147l8.039,7.397l-1.143,28.098
		l-9.204,8.434H91.812l2.973-43.929H175.928z M173.772,307.792l8.13,7.486l-1.118,27.629l-8.641,7.467H90.066
		c-0.516-0.373-1.008-0.756-1.519-1.129l2.805-41.453H173.772z M171.005,357.104l8.865,8.186l-1.055,25.921l-8.536,7.355h-0.753
		c-25.879-13.151-49.408-27.152-70.02-41.467h71.5V357.104z M291.688,242.135l-9.191,8.286h-82.918l-7.976-8.286l1.134-27.921
		h98.951V242.135z M11.533,228.811c15.819-42.433,105.808-52.925,217.085-28.044H91.405c-3.538,0-6.471,2.739-6.704,6.27
		l-8.965,132.379C25.961,299.605,0.264,259.058,11.533,228.811z M150.049,398.566H85.208l2.618-38.694
		C106.235,373.149,127.071,386.17,150.049,398.566z M176.472,448.994H81.789l2.959-43.707h78.09
		c4.578,2.348,9.248,4.667,13.976,6.959l1.099,1.087L176.472,448.994z M357.28,519.182l-56.687,7.393v-19.229L357.28,519.182z
		 M183.202,448.994l1.342-33.066c19.284,9.078,39.663,17.698,61.024,25.66c6.963,2.586,13.908,5.035,20.853,7.406H183.202z
		 M347.175,462.44h57.872c-0.967-4.536-1.382-9.013-1.232-13.446H298.409v-35.959l8.345-7.743h92.035l7.962,7.397l0.742,18.342
		c1.638-4.154,3.752-8.023,6.249-11.663l-0.224-5.652l8.597-8.429h4.145c2.59-2.343,5.329-4.578,8.162-6.721h-12.624l-9.223-7.943
		l-1.013-24.974l9.265-8.555h71.794l0.256,3.827c2.255-2.007,3.953-3.925,4.845-5.713c1.727-3.463,4.452-6.146,7.715-7.868
		l-1.237-18.267c27.415,23.12,45.925,45.686,54.53,65.927c-13.474,4.145-28.025,5.189-42.214,6.188
		c-3.285,0.229-6.552,0.477-9.801,0.737c0.112-12.694,1.2-24.927,5.186-35.227c0.873-2.282-0.187-4.845-2.413-5.829
		c-2.235-0.994-4.849-0.047-5.937,2.137c-5.265,10.534-21.09,19.705-37.836,29.417c-23.284,13.487-49.657,28.782-54.087,52.799
		c-1.643,8.909-0.145,18.262,4.438,28.222C394.042,471.391,370.955,467.695,347.175,462.44z M442.874,488.492
		c1.587-2.012,3.155-4.079,4.728-6.175c2.628-3.906,5.428-7.799,7.888-11.878c2.507-4.069,4.788-8.242,7.057-12.33
		c2.25-4.098,4.219-8.266,6.142-12.261c3.822-8.022,6.973-15.63,9.587-22.201c2.627-6.543,4.686-12.06,6.151-15.924
		c1.488-3.846,2.272-6.1,2.272-6.1c0.009,0-5.96,7.472-13.134,19.699c-3.668,6.044-7.69,13.218-12.026,20.815
		c-2.175,3.78-4.411,7.691-6.702,11.668c-2.296,3.948-4.625,7.962-7.122,11.845c-2.306,4.022-4.914,7.812-7.36,11.649
		c-2.095,2.832-3.976,5.759-5.959,8.531c-11.322-14.776-15.873-27.555-13.787-38.938c3.673-19.868,27.06-33.431,49.686-46.545
		c10.474-6.072,20.605-11.948,28.517-18.36c-1.751,12.933-1.316,26.841-0.896,40.444c0.732,23.798,1.419,46.284-9.964,58.026
		C479.618,489.038,464.799,491.632,442.874,488.492z M487.944,492.109c2.417-1.508,4.606-3.276,6.571-5.298
		c9.642-9.94,12.321-24.492,12.815-40.968c0.183-0.121,0.397-0.168,0.569-0.316l0.075-0.066l31.376-26.467l-31.969,16.555
		c-0.052-4.396-0.187-8.877-0.322-13.408c-0.112-3.674-0.21-7.36-0.285-11.038c3.445-0.294,6.912-0.542,10.385-0.794
		c13.189-0.929,26.682-1.881,39.661-5.24c-6.376,9.422-11.659,21.155-17.147,33.299
		C526.708,467.097,514.387,494.447,487.944,492.109z M561.782,433.84c-3.463,9.306-10.65,17.394-20.97,23.812
		c2.502-5.135,4.873-10.38,7.188-15.523c5.083-11.266,10.016-22.117,15.626-30.719C564.885,419.457,564.344,426.989,561.782,433.84z
		"/>
</g>
</svg>