<svg xmlns="http://www.w3.org/2000/svg" viewBox="0 0 64 64"><g id="Layer_30" data-name="Layer 30"><path d="M60.67,44.84a4.48,4.48,0,0,0-5.85-2.46L42.09,46.86a4.29,4.29,0,0,0-4.21-5h-7.2a2.24,2.24,0,0,1-1.07-.27l-6.9-3.65a4.32,4.32,0,0,0-2-.49h-8.9V33.86a1,1,0,0,0-1-1H4a1,1,0,0,0-1,1v24.5a1,1,0,0,0,1,1h6.81a1,1,0,0,0,1-1V56.07c2.78-.12,5.76.08,8.22,1.49L28.35,60a8.46,8.46,0,0,0,7.8,0l22.43-9.59A4.45,4.45,0,0,0,60.67,44.84ZM9.81,57.36H5V34.86H9.81Zm47.92-8.67L35.3,58.27A6.7,6.7,0,0,1,29,58.15L20.7,55.67c-2.67-1.5-5.89-1.71-8.89-1.6V39.41h8.9a2.35,2.35,0,0,1,1.07.26l6.9,3.65a4.21,4.21,0,0,0,2,.5h7.2a2.3,2.3,0,0,1,1.52,4l-1.69.59H26.78a1,1,0,0,0,0,2h11.1a4.21,4.21,0,0,0,2.49-.81l15.18-5.35A2.48,2.48,0,0,1,57.73,48.69Z" id="id_101" style="fill: rgb(142, 184, 151);"></path><path d="M43.93,37.28A11.28,11.28,0,0,0,55.19,26c0-6-10-18.75-10.48-19.29a1,1,0,0,0-1.57,0C42.71,7.26,32.66,20.06,32.66,26A11.28,11.28,0,0,0,43.93,37.28ZM43.93,9c3.17,4.18,9.26,13,9.26,17a9.27,9.27,0,1,1-18.53,0C34.66,22,40.76,13.15,43.93,9Z" id="id_102" style="fill: rgb(142, 184, 151);"></path><path d="M43.93,33.21a7.21,7.21,0,0,0,7.2-7.2,1,1,0,1,0-2,0,5.2,5.2,0,0,1-5.2,5.2A1,1,0,0,0,43.93,33.21Z" id="id_103" style="fill: rgb(142, 184, 151);"></path></g></svg>