<svg id="Layer_1" data-name="Layer 1" xmlns="http://www.w3.org/2000/svg" viewBox="0 0 48 48"><title>Artboard 19</title><path d="M15.453,17.171a2.361,2.361,0,1,1,2.36-2.361A2.364,2.364,0,0,1,15.453,17.171Zm0-3.122a.761.761,0,1,0,.761.761A.762.762,0,0,0,15.453,14.049Z" id="id_101" style="fill: rgb(142, 184, 151);"></path><path d="M12.33,33.59a.827.827,0,0,1-.57-.23.789.789,0,0,1-.229-.569.761.761,0,0,1,.06-.3.778.778,0,0,1,.17-.261.87.87,0,0,1,.26-.18.824.824,0,0,1,.88.18.821.821,0,0,1,.23.561.79.79,0,0,1-.23.569A.823.823,0,0,1,12.33,33.59Z" id="id_102" style="fill: rgb(142, 184, 151);"></path><path d="M35.76,26.3a.809.809,0,0,1-.31-.06.78.78,0,0,1-.261-.171.819.819,0,0,1-.239-.569.783.783,0,0,1,.239-.561.676.676,0,0,1,.261-.18.8.8,0,0,1,.869.18.771.771,0,0,1,.23.561.806.806,0,0,1-.23.569.876.876,0,0,1-.26.171A.8.8,0,0,1,35.76,26.3Z" id="id_103" style="fill: rgb(142, 184, 151);"></path><path d="M24,37.03a8.591,8.591,0,0,1-8.582-8.582c0-5,2.04-7.941,4.2-11.056a31.172,31.172,0,0,0,3.459-5.918.986.986,0,0,1,.971-.614,1,1,0,0,1,.907.7,19.861,19.861,0,0,0,3.352,5.923c2.1,2.879,4.275,5.856,4.275,10.961A8.591,8.591,0,0,1,24,37.03Zm-.079-22.683a42.865,42.865,0,0,1-2.659,4.185c-2.062,2.974-3.844,5.542-3.844,9.916a6.582,6.582,0,0,0,13.164,0c0-4.452-1.89-7.041-3.891-9.781A29.033,29.033,0,0,1,23.921,14.348Z" id="id_104" style="fill: rgb(142, 184, 151);"></path><path d="M30.381,4.8l.658-.342a1,1,0,1,0-.92-1.775L27.141,4.226a1,1,0,0,0-.428,1.348l1.545,2.979a1,1,0,0,0,1.775-.92L29.5,6.607A18.851,18.851,0,0,1,41.747,30.742a1,1,0,0,0,1.891.652A20.84,20.84,0,0,0,30.381,4.8Z" id="id_105" style="fill: rgb(142, 184, 151);"></path><path d="M39.154,36.446,35.8,36.288a.99.99,0,0,0-1.046.952,1,1,0,0,0,.952,1.046l1.106.052a18.829,18.829,0,0,1-27.4-1.753A1,1,0,0,0,7.87,37.858a20.826,20.826,0,0,0,30.117,2.118l-.037.773A1,1,0,0,0,38.9,41.8h.048a1,1,0,0,0,1-.953l.158-3.352a1,1,0,0,0-.952-1.046Z" id="id_106" style="fill: rgb(142, 184, 151);"></path><path d="M7.225,27.479a1,1,0,0,0-1.348.43l-.341.661A18.8,18.8,0,0,1,20.725,6.038a1,1,0,0,0-.34-1.971A20.851,20.851,0,0,0,3.667,29.418l-.964-.5A1,1,0,1,0,1.785,30.7l2.981,1.54a1,1,0,0,0,1.348-.43l1.54-2.981A1,1,0,0,0,7.225,27.479Z" id="id_107" style="fill: rgb(142, 184, 151);"></path></svg>